<svg width="14" height="18" viewBox="0 0 14 18" fill="none" xmlns="http://www.w3.org/2000/svg">
<g clip-path="url(#clip0_560_50)">
<path d="M10 6.27V3C10 1.34 8.66 0 7 0C6.17 0 5.42 0.34 4.88 0.88C4.33 1.42 4 2.17 4 3V6.27H0V16.42C0 17.29 0.71 18 1.58 18H12.42C13.3 18 14 17.29 14 16.42V6.27H10ZM5 3C5 1.9 5.9 1 7 1C7.55 1 8.05 1.22 8.42 1.59C8.79 1.96 9 2.45 9 3V6.27H5V3ZM13 16.39C13 16.73 12.73 17 12.39 17H1.61C1.27 17 1 16.73 1 16.39V7.27H13V16.39Z" fill="white"/>
</g>
<defs>
<clipPath id="clip0_560_50">
<rect width="14" height="18" fill="white"/>
</clipPath>
</defs>
</svg>
