<svg width="103" height="18" viewBox="0 0 103 18" fill="none" xmlns="http://www.w3.org/2000/svg">
<path d="M55.0428 0.000976562V17.9993L52.1779 17.992V3.51892L45.0519 16.4756L37.5121 4.97593V17.9929H35.9619V0.00268653H38.237L45.9174 11.6699L52.3455 0.000976562H55.0432H55.0428Z" fill="white"/>
<path d="M95.606 0.000976562V17.9929H93.6477L81.6138 5.06055L81.6091 17.9929H80.0542V0.00396868L81.5394 0.000976562L94.0601 13.3979V0.000976562H95.606Z" fill="white"/>
<path d="M102.748 0.00299114V17.9923H99.606L99.6115 0.00170898L102.748 0.00299114Z" fill="white"/>
<path d="M10.9513 16.4485H3.12003V0.00170997H2.3631L2.36438 0H0.0119685L0 18H10.9513V16.4485Z" fill="white"/>
<path d="M25.0806 0.469769L24.9006 0.0175781H22.2123L15.3311 17.0482L14.9512 17.9924H16.6274L18.1357 14.2359H27.077L28.3771 17.5444L28.5613 17.9924H31.9617L25.0806 0.469769ZM18.7597 12.6836L22.5444 3.25001L22.6645 2.94613L26.3812 12.3874L26.4893 12.6836H18.7602H18.7597Z" fill="white"/>
<path d="M69.1729 0.469769L68.9929 0.0175781H66.3046L59.4234 17.0482L59.0435 17.9924H60.7197L62.228 14.2359H71.1693L72.4694 17.5444L72.6536 17.9924H76.054L69.1729 0.469769ZM62.852 12.6836L66.6367 3.25001L66.7568 2.94613L70.4734 12.3874L70.5816 12.6836H62.8525H62.852Z" fill="white"/>
</svg>
