<svg width="14" height="18" viewBox="0 0 14 18" fill="none" xmlns="http://www.w3.org/2000/svg">
<g clip-path="url(#clip0_560_45)">
<path d="M10.8768 12.7913C11.2238 12.5509 11.551 12.2705 11.8484 11.97C13.1077 10.6978 13.881 8.95493 13.881 7.01169C13.881 5.06845 13.1077 3.32554 11.8484 2.05342C10.5992 0.781302 8.85411 0 6.94051 0C5.02691 0 3.28187 0.781302 2.03258 2.05342C0.545327 3.55593 -0.267704 5.70952 0.0793214 8.08347C0.426347 10.4574 1.983 12.5409 4.17422 13.4624C6.02833 14.2437 8.00142 14.1736 9.61757 13.4825L12.721 17.7095C12.9589 18.0301 13.3952 18.0902 13.7125 17.8598C14.0297 17.6194 14.0992 17.1786 13.8612 16.8581L10.8768 12.8013V12.7913ZM9.00284 12.6411C8.35836 12.8915 7.66431 13.0217 6.94051 13.0217C3.65864 13.0217 0.991503 10.3272 0.991503 7.01169C0.991503 5.34892 1.65581 3.84641 2.73655 2.76461C3.81728 1.67279 5.30453 1.00167 6.94051 1.00167C8.57649 1.00167 10.0637 1.67279 11.1445 2.76461C12.2252 3.84641 12.8895 5.34892 12.8895 7.01169C12.8895 8.67446 12.2252 10.177 11.1445 11.2588C10.8768 11.5292 10.5892 11.7696 10.2819 11.98C9.88527 12.2504 9.45893 12.4808 9.00284 12.6411Z" fill="white"/>
</g>
<defs>
<clipPath id="clip0_560_45">
<rect width="14" height="18" fill="white"/>
</clipPath>
</defs>
</svg>
